<svg width="64" height="64" viewBox="0 0 64 64" fill="none" xmlns="http://www.w3.org/2000/svg">
<path d="M45.3335 53.3346H58.6668V48.0013C58.6667 46.3387 58.1486 44.7175 57.1845 43.363C56.2204 42.0084 54.8583 40.9879 53.2875 40.4433C51.7166 39.8987 50.0151 39.857 48.4195 40.324C46.8239 40.791 45.4134 41.7436 44.3841 43.0493M45.3335 53.3346H18.6668M45.3335 53.3346V48.0013C45.3335 46.252 44.9975 44.58 44.3841 43.0493M44.3841 43.0493C43.3939 40.5745 41.6848 38.4532 39.4775 36.959C37.2701 35.4647 34.6657 34.6661 32.0002 34.6661C29.3346 34.6661 26.7302 35.4647 24.5228 36.959C22.3155 38.4532 20.6064 40.5745 19.6162 43.0493M18.6668 53.3346H5.3335V48.0013C5.33362 46.3387 5.85172 44.7175 6.81579 43.363C7.77986 42.0084 9.14199 40.9879 10.7128 40.4433C12.2837 39.8987 13.9852 39.857 15.5808 40.324C17.1764 40.791 18.5869 41.7436 19.6162 43.0493M18.6668 53.3346V48.0013C18.6668 46.252 19.0028 44.58 19.6162 43.0493M40.0001 18.668C40.0001 20.7897 39.1573 22.8245 37.657 24.3248C36.1567 25.8251 34.1219 26.668 32.0002 26.668C29.8784 26.668 27.8436 25.8251 26.3433 24.3248C24.843 22.8245 24.0002 20.7897 24.0002 18.668C24.0002 16.5462 24.843 14.5114 26.3433 13.0111C27.8436 11.5108 29.8784 10.668 32.0002 10.668C34.1219 10.668 36.1567 11.5108 37.657 13.0111C39.1573 14.5114 40.0001 16.5462 40.0001 18.668ZM56.0001 26.668C56.0001 28.0824 55.4382 29.439 54.438 30.4392C53.4379 31.4394 52.0813 32.0013 50.6668 32.0013C49.2523 32.0013 47.8958 31.4394 46.8956 30.4392C45.8954 29.439 45.3335 28.0824 45.3335 26.668C45.3335 25.2535 45.8954 23.8969 46.8956 22.8967C47.8958 21.8965 49.2523 21.3346 50.6668 21.3346C52.0813 21.3346 53.4379 21.8965 54.438 22.8967C55.4382 23.8969 56.0001 25.2535 56.0001 26.668ZM18.6668 26.668C18.6668 28.0824 18.1049 29.439 17.1047 30.4392C16.1045 31.4394 14.748 32.0013 13.3335 32.0013C11.919 32.0013 10.5625 31.4394 9.56226 30.4392C8.56206 29.439 8.00016 28.0824 8.00016 26.668C8.00016 25.2535 8.56206 23.8969 9.56226 22.8967C10.5625 21.8965 11.919 21.3346 13.3335 21.3346C14.748 21.3346 16.1045 21.8965 17.1047 22.8967C18.1049 23.8969 18.6668 25.2535 18.6668 26.668Z" stroke="#1C84FF" stroke-width="4" stroke-linecap="round" stroke-linejoin="round"/>
</svg>
