<svg width="159" height="40" viewBox="0 0 159 40" fill="none" xmlns="http://www.w3.org/2000/svg">
<path opacity="0.45" d="M54.6211 12.3234C54.6211 10.3452 56.5899 8.93706 58.4568 9.60599C62.8127 11.1703 65.9267 15.3218 65.9267 20.197C65.9267 25.0721 62.8127 29.2236 58.4568 30.788C56.5873 31.4595 54.6211 30.0487 54.6211 28.0706V12.3234Z" fill="#1C84FF"/>
<path d="M51.7741 8.51669C51.7741 5.58328 48.8536 3.4906 46.0821 4.48488C39.6187 6.80662 34.9961 12.9676 34.9961 20.2009C34.9961 27.4368 39.6161 33.5977 46.0821 35.9169C48.8562 36.9111 51.7741 34.8185 51.7741 31.885V8.51669Z" fill="#1C84FF"/>
<path d="M4.29102 8.47806C4.29102 8.17613 4.34592 7.88982 4.46097 7.62433C4.57601 7.35884 4.73289 7.12718 4.92637 6.93457C5.12247 6.73936 5.35517 6.58579 5.62186 6.47127C5.88855 6.35414 6.16832 6.29688 6.46377 6.29688C6.75399 6.29688 7.03376 6.35414 7.30045 6.47127C7.56714 6.58579 7.80246 6.73936 8.00378 6.93457C8.20511 7.12979 8.3646 7.35884 8.47964 7.62433C8.59469 7.88982 8.65482 8.17613 8.65482 8.47806C8.65482 8.76958 8.59469 9.04548 8.47964 9.30577C8.3646 9.56605 8.20511 9.7951 8.00378 9.98771C7.80246 10.1829 7.56975 10.3365 7.30045 10.4536C7.03376 10.5681 6.75399 10.6254 6.46377 10.6254C6.17093 10.6254 5.89117 10.5681 5.62186 10.4536C5.35517 10.3365 5.12247 10.1829 4.92637 9.98771C4.73289 9.7951 4.57601 9.56865 4.46097 9.30577C4.34592 9.04548 4.29102 8.76958 4.29102 8.47806ZM8.4535 27.4424C8.4535 27.7209 8.4012 27.9786 8.29662 28.2154C8.19203 28.4523 8.05607 28.6579 7.87566 28.8349C7.70048 29.0119 7.4887 29.1499 7.24816 29.254C7.00238 29.3555 6.74876 29.4075 6.48207 29.4075C6.21538 29.4075 5.95653 29.3555 5.71076 29.254C5.47021 29.1473 5.25843 29.0067 5.0754 28.8323C4.89238 28.6553 4.74857 28.4497 4.64399 28.2128C4.5394 27.976 4.49234 27.7183 4.49234 27.4398V14.4594C4.49234 14.1939 4.54463 13.9414 4.65706 13.7046C4.76426 13.4677 4.91068 13.2595 5.09632 13.0773C5.27934 12.8951 5.49113 12.7519 5.73167 12.6504C5.97745 12.5489 6.23891 12.4969 6.51606 12.4969C6.78275 12.4969 7.03637 12.5489 7.2743 12.6504C7.51223 12.7545 7.7214 12.8977 7.89658 13.0773C8.07176 13.2595 8.21034 13.4677 8.30708 13.7046C8.40643 13.9388 8.45611 14.1913 8.45611 14.4594V27.4424H8.4535Z" fill="#1C84FF"/>
<path d="M27.1034 27.4923C27.1034 27.7708 27.0511 28.0285 26.9466 28.2653C26.842 28.5022 26.706 28.7078 26.5361 28.8848C26.3661 29.0618 26.1596 29.1971 25.9216 29.2934C25.6837 29.3924 25.4301 29.4392 25.166 29.4392C24.8836 29.4392 24.6222 29.3924 24.3764 29.2934C24.1358 29.1971 23.9214 29.0592 23.741 28.8848C23.558 28.7078 23.409 28.5022 23.3018 28.2653C23.1893 28.0311 23.1371 27.7734 23.1371 27.4923V20.7301C23.1371 20.6338 23.1397 20.5609 23.1554 20.5114C23.1292 19.918 23.0037 19.361 22.7788 18.8404C22.5514 18.3198 22.2533 17.8644 21.882 17.4765C21.5134 17.0887 21.0715 16.7816 20.5616 16.5577C20.0492 16.3339 19.4949 16.222 18.8987 16.222C18.2765 16.222 17.7039 16.3339 17.1809 16.5577C16.6606 16.7816 16.2109 17.0939 15.8422 17.4947C15.471 17.8956 15.1755 18.3641 14.9637 18.9029C14.7519 19.4417 14.6447 20.0195 14.6447 20.639V27.4923C14.6447 27.7708 14.5977 28.0285 14.5009 28.2653C14.4042 28.5022 14.2656 28.7078 14.0878 28.8848C13.9127 29.0618 13.7035 29.1971 13.4708 29.2934C13.2329 29.3924 12.9792 29.4392 12.7125 29.4392C12.4459 29.4392 12.187 29.3924 11.9465 29.2934C11.7007 29.1971 11.4863 29.0592 11.2954 28.8848C11.1098 28.7078 10.9607 28.5022 10.8483 28.2653C10.7411 28.0311 10.6836 27.7734 10.6836 27.4923V20.7301V20.6572V20.639C10.6836 19.4755 10.8928 18.3875 11.3111 17.375C11.7321 16.3651 12.3125 15.4775 13.0472 14.7201C13.7819 13.9627 14.6552 13.364 15.6592 12.9294C16.6632 12.4921 17.7431 12.2734 18.8987 12.2734C20.0675 12.2734 21.1499 12.4921 22.1513 12.9294C23.1475 13.364 24.0103 13.9627 24.745 14.7201C25.4745 15.4775 26.0497 16.3625 26.4681 17.375C26.889 18.3849 27.1008 19.4755 27.1008 20.639V20.6572V20.7301V27.4923H27.1034Z" fill="#1C84FF"/>
<path d="M147.955 7.15197C147.955 5.29614 149.435 3.84375 151.328 3.84375C153.221 3.84375 154.709 5.29093 154.709 7.15197C154.709 9.00259 153.221 10.455 151.328 10.455C149.443 10.455 147.955 9.00259 147.955 7.15197ZM153.875 7.15197C153.875 5.71259 152.766 4.60378 151.328 4.60378C149.903 4.60378 148.781 5.7152 148.781 7.15197C148.781 8.57833 149.903 9.70015 151.328 9.70015C152.766 9.70276 153.875 8.57833 153.875 7.15197ZM150.042 8.65381V5.5356H151.61C152.269 5.5356 152.732 5.93904 152.732 6.50126C152.732 6.98799 152.463 7.34458 152.023 7.42527L152.897 8.65121H152.003L151.273 7.52678H150.763V8.65121H150.042V8.65381ZM150.763 6.98799H151.459C151.775 6.98799 151.961 6.82401 151.961 6.5429C151.961 6.2696 151.788 6.13165 151.48 6.13165H150.763V6.98799Z" fill="#1C84FF"/>
<path d="M73.4355 20.7658V7.85833C73.4355 7.56681 73.4878 7.29612 73.5924 7.04885C73.697 6.80158 73.833 6.58294 74.0134 6.39553C74.1886 6.20553 74.4003 6.06237 74.6409 5.95826C74.8867 5.85414 75.1481 5.80469 75.4253 5.80469C75.7181 5.80469 75.9822 5.85414 76.2227 5.95826C76.4607 6.06237 76.6646 6.20553 76.845 6.39553C77.0202 6.58294 77.1588 6.80158 77.2555 7.04885C77.3522 7.29612 77.3993 7.56681 77.3993 7.85833V13.5299C78.0948 13.0822 78.84 12.7335 79.64 12.4836C80.4375 12.2363 81.2742 12.1114 82.1501 12.1114C83.3554 12.1114 84.4823 12.3404 85.536 12.7933C86.5897 13.2488 87.5074 13.8683 88.2918 14.6492C89.0814 15.43 89.6985 16.3488 90.1561 17.403C90.6136 18.4571 90.8411 19.5842 90.8411 20.7841C90.8411 21.971 90.6136 23.0928 90.1561 24.1469C89.6985 25.2037 89.0814 26.1225 88.2918 26.9086C87.5074 27.6972 86.5871 28.3167 85.536 28.7722C84.4823 29.2251 83.3554 29.4541 82.1501 29.4541C80.9552 29.4541 79.8283 29.2251 78.772 28.7722C77.7104 28.3167 76.7849 27.6972 75.9926 26.9086C75.203 26.1225 74.5781 25.2011 74.1206 24.1469C73.6656 23.0928 73.4355 21.971 73.4355 20.7841V20.7658ZM77.3967 20.7841C77.3967 21.427 77.5222 22.036 77.7732 22.6113C78.0242 23.1865 78.3641 23.6888 78.7955 24.1183C79.2269 24.5504 79.7289 24.8888 80.3015 25.136C80.8741 25.3833 81.4886 25.5082 82.1475 25.5082C82.8011 25.5082 83.4208 25.3833 83.9882 25.136C84.5608 24.8888 85.0628 24.5478 85.4942 24.1183C85.9282 23.6888 86.2655 23.1865 86.5087 22.6113C86.7492 22.036 86.8721 21.427 86.8721 20.7841C86.8721 20.1308 86.7492 19.5139 86.5087 18.9386C86.2629 18.3634 85.9282 17.8637 85.4942 17.4394C85.0628 17.0151 84.5608 16.6794 83.9882 16.4295C83.4182 16.1822 82.8011 16.0547 82.1475 16.0547C81.4886 16.0547 80.8741 16.1796 80.3015 16.4295C79.7289 16.6768 79.2269 17.0151 78.7955 17.4394C78.3641 17.8637 78.0216 18.3634 77.7732 18.9386C77.5222 19.5139 77.3967 20.1308 77.3967 20.7841Z" fill="#1C84FF"/>
<path d="M96.8785 28.0649C96.7739 28.2992 96.6406 28.5048 96.468 28.674C96.2981 28.8432 96.0968 28.9785 95.8641 29.0826C95.634 29.1842 95.383 29.2362 95.1163 29.2362C94.8339 29.2362 94.5698 29.1842 94.3188 29.0826C94.0704 28.9785 93.8534 28.8432 93.6704 28.674C93.4874 28.5048 93.3383 28.2992 93.2311 28.0649C93.1239 27.8281 93.0664 27.5704 93.0664 27.2919V21.4199C93.0664 20.1705 93.3043 18.9966 93.788 17.893C94.2691 16.792 94.9228 15.8263 95.749 15.0012C96.5779 14.1761 97.5453 13.5254 98.6539 13.0465C99.7625 12.5676 100.934 12.3281 102.176 12.3281H102.212C102.871 12.3281 103.376 12.5129 103.737 12.8825C104.095 13.2521 104.275 13.7233 104.275 14.2907C104.275 14.5692 104.22 14.8321 104.111 15.0715C103.998 15.3136 103.849 15.5244 103.661 15.6988C103.47 15.8758 103.256 16.0138 103.007 16.1179C102.754 16.222 102.49 16.2714 102.21 16.2714H102.173C101.48 16.2714 100.819 16.4042 100.194 16.6723C99.5664 16.9378 99.0225 17.3048 98.5571 17.7629C98.0969 18.2236 97.7231 18.7624 97.4459 19.3818C97.1661 20.0013 97.025 20.6624 97.025 21.3626V27.2893C97.0328 27.5704 96.9805 27.8281 96.8785 28.0649Z" fill="#1C84FF"/>
<path d="M104.191 20.7742C104.191 19.5743 104.421 18.4499 104.887 17.401C105.347 16.352 105.977 15.4332 106.767 14.6471C107.559 13.8585 108.482 13.239 109.536 12.7835C110.589 12.3306 111.711 12.1016 112.906 12.1016C114.111 12.1016 115.238 12.3306 116.292 12.7835C117.346 13.239 118.263 13.8585 119.048 14.6471C119.832 15.4332 120.454 16.352 120.912 17.401C121.37 18.4499 121.597 19.5743 121.597 20.7742V27.2085C121.597 27.487 121.545 27.7499 121.44 27.9893C121.341 28.2314 121.194 28.4448 121.011 28.627C120.828 28.8092 120.614 28.955 120.363 29.0643C120.114 29.1736 119.85 29.2283 119.565 29.2283C119.092 29.2283 118.692 29.0903 118.36 28.8092C118.033 28.5307 117.814 28.1793 117.706 27.7551C117.011 28.2756 116.258 28.6895 115.447 28.9914C114.639 29.296 113.787 29.4469 112.903 29.4469C111.708 29.4469 110.587 29.2179 109.533 28.765C108.479 28.3095 107.556 27.69 106.764 26.9013C105.975 26.1153 105.347 25.1939 104.884 24.1397C104.421 23.083 104.191 21.9611 104.191 20.7742ZM108.153 20.7742C108.153 21.4171 108.278 22.0262 108.529 22.6014C108.777 23.1767 109.12 23.679 109.551 24.1085C109.983 24.5406 110.485 24.8789 111.057 25.1262C111.63 25.3735 112.244 25.4984 112.903 25.4984C113.557 25.4984 114.177 25.3735 114.757 25.1262C115.335 24.8789 115.837 24.538 116.263 24.1085C116.687 23.679 117.021 23.1767 117.267 22.6014C117.508 22.0262 117.631 21.4171 117.631 20.7742C117.631 20.1209 117.508 19.5041 117.267 18.9288C117.021 18.3536 116.687 17.8539 116.263 17.4296C115.834 17.0053 115.332 16.6696 114.757 16.4197C114.177 16.1724 113.56 16.0449 112.903 16.0449C112.255 16.0449 111.646 16.1698 111.065 16.4197C110.487 16.667 109.983 17.0053 109.551 17.4296C109.12 17.8539 108.777 18.3536 108.529 18.9288C108.281 19.5041 108.153 20.1209 108.153 20.7742Z" fill="#1C84FF"/>
<path d="M123.619 8.314C123.619 8.01207 123.674 7.72575 123.789 7.46026C123.904 7.19477 124.061 6.96312 124.255 6.77051C124.451 6.5753 124.683 6.42173 124.95 6.3072C125.217 6.19007 125.496 6.13281 125.792 6.13281C126.082 6.13281 126.362 6.19007 126.629 6.3072C126.895 6.42173 127.131 6.5753 127.332 6.77051C127.533 6.96572 127.693 7.19477 127.808 7.46026C127.923 7.72575 127.983 8.01207 127.983 8.314C127.983 8.60552 127.923 8.88142 127.808 9.1417C127.693 9.40199 127.533 9.63104 127.332 9.82365C127.131 10.0189 126.898 10.1724 126.629 10.2896C126.362 10.4041 126.082 10.4613 125.792 10.4613C125.499 10.4613 125.219 10.4041 124.95 10.2896C124.683 10.1724 124.451 10.0189 124.255 9.82365C124.061 9.63104 123.904 9.40199 123.789 9.1417C123.677 8.88142 123.619 8.60552 123.619 8.314ZM127.782 27.2783C127.782 27.5568 127.729 27.8145 127.625 28.0514C127.52 28.2882 127.384 28.4939 127.204 28.6709C127.029 28.8479 126.817 28.9858 126.576 29.0899C126.331 29.1914 126.077 29.2435 125.81 29.2435C125.544 29.2435 125.285 29.1914 125.039 29.0899C124.798 28.9858 124.584 28.8479 124.404 28.6709C124.221 28.4939 124.077 28.2882 123.972 28.0514C123.868 27.8145 123.82 27.5568 123.82 27.2783V14.2953C123.82 14.0298 123.873 13.7774 123.985 13.5405C124.092 13.3037 124.239 13.0954 124.424 12.9132C124.607 12.731 124.819 12.5879 125.06 12.4864C125.306 12.3849 125.567 12.3328 125.844 12.3328C126.111 12.3328 126.365 12.3849 126.602 12.4864C126.84 12.5905 127.05 12.7336 127.225 12.9132C127.4 13.0928 127.539 13.3037 127.635 13.5405C127.735 13.7748 127.784 14.0272 127.784 14.2953V27.2783H127.782Z" fill="#1C84FF"/>
<path d="M146.435 27.3204C146.435 27.5989 146.383 27.8566 146.279 28.0934C146.174 28.3303 146.038 28.5359 145.868 28.7129C145.698 28.8899 145.492 29.0253 145.254 29.1216C145.016 29.2205 144.762 29.2673 144.498 29.2673C144.216 29.2673 143.954 29.2205 143.708 29.1216C143.468 29.0253 143.253 28.8873 143.073 28.7129C142.89 28.5359 142.741 28.3303 142.634 28.0934C142.521 27.8592 142.469 27.6015 142.469 27.3204V20.5582C142.469 20.4619 142.472 20.389 142.487 20.3396C142.461 19.7461 142.336 19.1891 142.111 18.6685C141.883 18.148 141.585 17.6925 141.214 17.3047C140.845 16.9168 140.404 16.6097 139.894 16.3858C139.381 16.162 138.827 16.0501 138.231 16.0501C137.608 16.0501 137.036 16.162 136.513 16.3858C135.993 16.6097 135.543 16.922 135.174 17.3229C134.803 17.7237 134.508 18.1922 134.296 18.731C134.084 19.2698 133.977 19.8476 133.977 20.4671V27.3204C133.977 27.5989 133.93 27.8566 133.833 28.0934C133.736 28.3303 133.598 28.5359 133.42 28.7129C133.245 28.8899 133.036 29.0253 132.803 29.1216C132.565 29.2205 132.311 29.2673 132.045 29.2673C131.778 29.2673 131.519 29.2205 131.278 29.1216C131.033 29.0253 130.818 28.8873 130.627 28.7129C130.442 28.5359 130.293 28.3303 130.18 28.0934C130.073 27.8592 130.016 27.6015 130.016 27.3204V20.5582V20.4853V20.4671C130.016 19.3036 130.225 18.2156 130.643 17.2031C131.061 16.1906 131.645 15.3057 132.379 14.5482C133.114 13.7908 133.987 13.1922 134.991 12.7575C135.995 12.3202 137.075 12.1016 138.231 12.1016C139.399 12.1016 140.482 12.3202 141.483 12.7575C142.48 13.1922 143.342 13.7908 144.077 14.5482C144.807 15.3057 145.382 16.1906 145.8 17.2031C146.221 18.213 146.433 19.3036 146.433 20.4671V20.4853V20.5582V27.3204H146.435Z" fill="#1C84FF"/>
</svg>
